<mxfile host="app.diagrams.net" agent="Mozilla/5.0 (Macintosh; Intel Mac OS X 10_15_7) AppleWebKit/537.36 (KHTML, like Gecko) Chrome/134.0.0.0 Safari/537.36" version="26.1.3">
  <diagram name="Page-1" id="KVSCCIdfA2Qh_Gup4lbS">
    <mxGraphModel grid="0" page="1" gridSize="10" guides="1" tooltips="1" connect="1" arrows="1" fold="1" pageScale="1" pageWidth="1700" pageHeight="1100" math="0" shadow="0">
      <root>
        <mxCell id="0" />
        <mxCell id="1" parent="0" />
        <mxCell id="ARnRsNDAR43bC3_j9Uv_-22" style="edgeStyle=orthogonalEdgeStyle;rounded=0;orthogonalLoop=1;jettySize=auto;html=1;exitX=1;exitY=0.5;exitDx=0;exitDy=0;entryX=1;entryY=0.5;entryDx=0;entryDy=0;" edge="1" parent="1" source="ARnRsNDAR43bC3_j9Uv_-2" target="ARnRsNDAR43bC3_j9Uv_-11">
          <mxGeometry relative="1" as="geometry">
            <Array as="points">
              <mxPoint x="1240" y="130" />
              <mxPoint x="1240" y="505" />
            </Array>
          </mxGeometry>
        </mxCell>
        <mxCell id="ARnRsNDAR43bC3_j9Uv_-2" value="timepoint&lt;div&gt;&lt;b&gt;&lt;i&gt;&lt;font style=&quot;font-size: 28px;&quot;&gt;t&lt;/font&gt;&lt;/i&gt;&lt;/b&gt;&lt;/div&gt;" style="whiteSpace=wrap;html=1;aspect=fixed;fontFamily=Times New Roman;fontSize=17;fillColor=#f8cecc;strokeColor=#b85450;" vertex="1" parent="1">
          <mxGeometry x="1070" y="90" width="80" height="80" as="geometry" />
        </mxCell>
        <mxCell id="ARnRsNDAR43bC3_j9Uv_-5" value="&lt;span style=&quot;color: rgb(0, 0, 0); font-style: normal; font-variant-ligatures: normal; font-variant-caps: normal; font-weight: 400; letter-spacing: normal; orphans: 2; text-align: center; text-indent: 0px; text-transform: none; widows: 2; word-spacing: 0px; -webkit-text-stroke-width: 0px; white-space: normal; text-decoration-thickness: initial; text-decoration-style: initial; text-decoration-color: initial; float: none; display: inline !important;&quot;&gt;target sample&lt;/span&gt;&lt;div&gt;&lt;span style=&quot;color: rgb(0, 0, 0); font-variant-ligatures: normal; font-variant-caps: normal; letter-spacing: normal; orphans: 2; text-align: center; text-indent: 0px; text-transform: none; widows: 2; word-spacing: 0px; -webkit-text-stroke-width: 0px; white-space: normal; text-decoration-thickness: initial; text-decoration-style: initial; text-decoration-color: initial; float: none; display: inline !important;&quot;&gt;&lt;b style=&quot;&quot;&gt;&lt;i&gt;&lt;font style=&quot;font-size: 28px;&quot;&gt;x&lt;/font&gt;&lt;font&gt;1&lt;/font&gt;&lt;/i&gt;&lt;/b&gt;&lt;/span&gt;&lt;/div&gt;" style="shape=cube;whiteSpace=wrap;html=1;boundedLbl=1;backgroundOutline=1;darkOpacity=0.05;darkOpacity2=0.1;fontFamily=Times New Roman;fontSize=17;fillColor=#fff2cc;strokeColor=#d6b656;labelBackgroundColor=none;" vertex="1" parent="1">
          <mxGeometry x="460" y="180" width="160" height="160" as="geometry" />
        </mxCell>
        <mxCell id="ARnRsNDAR43bC3_j9Uv_-6" value="reference sample&lt;div&gt;&lt;b&gt;&lt;i&gt;&lt;font style=&quot;font-size: 28px;&quot;&gt;x&lt;/font&gt;0&lt;/i&gt;&lt;/b&gt;&lt;/div&gt;" style="shape=cube;whiteSpace=wrap;html=1;boundedLbl=1;backgroundOutline=1;darkOpacity=0.05;darkOpacity2=0.1;fontFamily=Times New Roman;fontSize=17;fillColor=#fff2cc;strokeColor=#d6b656;" vertex="1" parent="1">
          <mxGeometry x="760" y="180" width="160" height="160" as="geometry" />
        </mxCell>
        <mxCell id="ARnRsNDAR43bC3_j9Uv_-20" style="edgeStyle=orthogonalEdgeStyle;rounded=0;orthogonalLoop=1;jettySize=auto;html=1;exitX=0;exitY=0;exitDx=90;exitDy=160;exitPerimeter=0;entryX=0.5;entryY=0;entryDx=0;entryDy=0;" edge="1" parent="1" source="ARnRsNDAR43bC3_j9Uv_-7" target="ARnRsNDAR43bC3_j9Uv_-11">
          <mxGeometry relative="1" as="geometry" />
        </mxCell>
        <mxCell id="ARnRsNDAR43bC3_j9Uv_-7" value="interpolated sample&lt;div&gt;&lt;b&gt;&lt;i&gt;&lt;font style=&quot;font-size: 28px;&quot;&gt;x&lt;/font&gt;t&lt;/i&gt;&lt;/b&gt;&lt;/div&gt;" style="shape=cube;whiteSpace=wrap;html=1;boundedLbl=1;backgroundOutline=1;darkOpacity=0.05;darkOpacity2=0.1;fontFamily=Times New Roman;fontSize=17;fillColor=#fff2cc;strokeColor=#d6b656;" vertex="1" parent="1">
          <mxGeometry x="1040" y="200" width="160" height="160" as="geometry" />
        </mxCell>
        <mxCell id="ARnRsNDAR43bC3_j9Uv_-18" style="edgeStyle=orthogonalEdgeStyle;rounded=0;orthogonalLoop=1;jettySize=auto;html=1;exitX=0;exitY=0;exitDx=90;exitDy=160;exitPerimeter=0;entryX=0;entryY=0.5;entryDx=0;entryDy=0;" edge="1" parent="1" source="ARnRsNDAR43bC3_j9Uv_-8" target="ARnRsNDAR43bC3_j9Uv_-10">
          <mxGeometry relative="1" as="geometry" />
        </mxCell>
        <mxCell id="ARnRsNDAR43bC3_j9Uv_-8" value="target&lt;br&gt;&lt;div&gt;velocity field&lt;/div&gt;&lt;div&gt;&lt;b&gt;&lt;i&gt;&lt;font style=&quot;font-size: 28px;&quot;&gt;u&lt;/font&gt;&lt;/i&gt;&lt;/b&gt;&lt;/div&gt;" style="shape=cube;whiteSpace=wrap;html=1;boundedLbl=1;backgroundOutline=1;darkOpacity=0.05;darkOpacity2=0.1;fontFamily=Times New Roman;fontSize=17;fillColor=#e1d5e7;strokeColor=#9673a6;" vertex="1" parent="1">
          <mxGeometry x="630" y="550" width="160" height="160" as="geometry" />
        </mxCell>
        <mxCell id="ARnRsNDAR43bC3_j9Uv_-17" style="edgeStyle=orthogonalEdgeStyle;rounded=0;orthogonalLoop=1;jettySize=auto;html=1;exitX=0;exitY=0;exitDx=90;exitDy=160;exitPerimeter=0;entryX=1;entryY=0.5;entryDx=0;entryDy=0;" edge="1" parent="1" source="ARnRsNDAR43bC3_j9Uv_-9" target="ARnRsNDAR43bC3_j9Uv_-10">
          <mxGeometry relative="1" as="geometry" />
        </mxCell>
        <mxCell id="ARnRsNDAR43bC3_j9Uv_-9" value="predicted&lt;br&gt;&lt;div&gt;velocity field&lt;/div&gt;&lt;div&gt;&lt;b&gt;&lt;i&gt;&lt;font style=&quot;font-size: 28px;&quot;&gt;v&lt;/font&gt;&lt;/i&gt;&lt;/b&gt;&lt;/div&gt;" style="shape=cube;whiteSpace=wrap;html=1;boundedLbl=1;backgroundOutline=1;darkOpacity=0.05;darkOpacity2=0.1;fontFamily=Times New Roman;fontSize=17;fillColor=#e1d5e7;strokeColor=#9673a6;" vertex="1" parent="1">
          <mxGeometry x="1060" y="550" width="160" height="160" as="geometry" />
        </mxCell>
        <mxCell id="ARnRsNDAR43bC3_j9Uv_-10" value="Loss Function" style="ellipse;whiteSpace=wrap;html=1;fontFamily=Times New Roman;fontSize=17;fillColor=#d5e8d4;strokeColor=#82b366;" vertex="1" parent="1">
          <mxGeometry x="930" y="750" width="120" height="80" as="geometry" />
        </mxCell>
        <mxCell id="ARnRsNDAR43bC3_j9Uv_-11" value="UNet" style="shape=step;perimeter=stepPerimeter;whiteSpace=wrap;html=1;fixedSize=1;fontSize=17;fontFamily=Times New Roman;flipH=1;fillColor=#dae8fc;strokeColor=#6c8ebf;" vertex="1" parent="1">
          <mxGeometry x="1050" y="390" width="160" height="130" as="geometry" />
        </mxCell>
        <mxCell id="ARnRsNDAR43bC3_j9Uv_-12" style="edgeStyle=orthogonalEdgeStyle;rounded=0;orthogonalLoop=1;jettySize=auto;html=1;exitX=0;exitY=0;exitDx=160;exitDy=90;exitPerimeter=0;entryX=0;entryY=0;entryDx=0;entryDy=70;entryPerimeter=0;" edge="1" parent="1" source="ARnRsNDAR43bC3_j9Uv_-6" target="ARnRsNDAR43bC3_j9Uv_-7">
          <mxGeometry relative="1" as="geometry" />
        </mxCell>
        <mxCell id="ARnRsNDAR43bC3_j9Uv_-13" style="edgeStyle=orthogonalEdgeStyle;rounded=0;orthogonalLoop=1;jettySize=auto;html=1;exitX=0;exitY=0;exitDx=70;exitDy=0;exitPerimeter=0;entryX=0;entryY=0;entryDx=0;entryDy=70;entryPerimeter=0;" edge="1" parent="1" source="ARnRsNDAR43bC3_j9Uv_-5" target="ARnRsNDAR43bC3_j9Uv_-7">
          <mxGeometry relative="1" as="geometry">
            <Array as="points">
              <mxPoint x="530" y="110" />
              <mxPoint x="1000" y="110" />
              <mxPoint x="1000" y="270" />
            </Array>
          </mxGeometry>
        </mxCell>
        <mxCell id="ARnRsNDAR43bC3_j9Uv_-14" style="edgeStyle=orthogonalEdgeStyle;rounded=0;orthogonalLoop=1;jettySize=auto;html=1;exitX=0;exitY=0;exitDx=90;exitDy=160;exitPerimeter=0;entryX=0;entryY=0;entryDx=0;entryDy=70;entryPerimeter=0;" edge="1" parent="1" source="ARnRsNDAR43bC3_j9Uv_-5" target="ARnRsNDAR43bC3_j9Uv_-8">
          <mxGeometry relative="1" as="geometry" />
        </mxCell>
        <mxCell id="ARnRsNDAR43bC3_j9Uv_-15" style="edgeStyle=orthogonalEdgeStyle;rounded=0;orthogonalLoop=1;jettySize=auto;html=1;exitX=0;exitY=0;exitDx=90;exitDy=160;exitPerimeter=0;entryX=0;entryY=0;entryDx=160;entryDy=90;entryPerimeter=0;" edge="1" parent="1" source="ARnRsNDAR43bC3_j9Uv_-6" target="ARnRsNDAR43bC3_j9Uv_-8">
          <mxGeometry relative="1" as="geometry" />
        </mxCell>
        <mxCell id="ARnRsNDAR43bC3_j9Uv_-19" style="edgeStyle=orthogonalEdgeStyle;rounded=0;orthogonalLoop=1;jettySize=auto;html=1;exitX=0.5;exitY=1;exitDx=0;exitDy=0;entryX=0;entryY=0;entryDx=70;entryDy=0;entryPerimeter=0;" edge="1" parent="1" source="ARnRsNDAR43bC3_j9Uv_-11" target="ARnRsNDAR43bC3_j9Uv_-9">
          <mxGeometry relative="1" as="geometry" />
        </mxCell>
        <mxCell id="ARnRsNDAR43bC3_j9Uv_-21" style="edgeStyle=orthogonalEdgeStyle;rounded=0;orthogonalLoop=1;jettySize=auto;html=1;exitX=0.5;exitY=1;exitDx=0;exitDy=0;entryX=0;entryY=0;entryDx=70;entryDy=0;entryPerimeter=0;" edge="1" parent="1" source="ARnRsNDAR43bC3_j9Uv_-2" target="ARnRsNDAR43bC3_j9Uv_-7">
          <mxGeometry relative="1" as="geometry" />
        </mxCell>
      </root>
    </mxGraphModel>
  </diagram>
</mxfile>
